<svg width="360" height="260" viewBox="0 0 360 260" fill="none" xmlns="http://www.w3.org/2000/svg">
  <rect width="360" height="260" rx="18" fill="#eef7fb"/>
  <rect x="52" y="34" width="104" height="188" rx="48" fill="#153855"/>
  <circle cx="204" cy="58" r="32" fill="#d49b73"/>
  <rect x="177" y="88" width="88" height="120" rx="28" fill="#344054"/>
  <path d="M139 93C180 124 214 158 252 207" stroke="#f8fafc" stroke-width="18" stroke-linecap="round"/>
  <path d="M146 101C176 130 198 154 221 194" stroke="#e2e8f0" stroke-width="10" stroke-linecap="round"/>
  <path d="M157 170C191 189 221 193 255 181" stroke="#f8fafc" stroke-width="22" stroke-linecap="round"/>
  <path d="M71 105C101 130 123 154 152 180" stroke="#d49b73" stroke-width="18" stroke-linecap="round"/>
  <path d="M103 181C133 196 164 198 202 190" stroke="#d49b73" stroke-width="16" stroke-linecap="round"/>
  <text x="22" y="44" fill="#0284c7" font-family="Arial, sans-serif" font-size="28" font-weight="700">A</text>
</svg>
